<svg width="32" height="32" viewBox="0 0 32 32" fill="none" xmlns="http://www.w3.org/2000/svg">
  <!-- Dark background -->
  <rect width="32" height="32" fill="#0a0a0a" rx="4"/>
  
  <!-- Microcontroller chip body -->
  <rect x="8" y="8" width="16" height="16" fill="#1a1a1a" stroke="#00ff88" stroke-width="1.5" rx="1"/>
  
  <!-- Chip pins - left side -->
  <line x1="6" y1="10" x2="8" y2="10" stroke="#00BFFF" stroke-width="1.5" stroke-linecap="round"/>
  <line x1="6" y1="14" x2="8" y2="14" stroke="#00BFFF" stroke-width="1.5" stroke-linecap="round"/>
  <line x1="6" y1="18" x2="8" y2="18" stroke="#00BFFF" stroke-width="1.5" stroke-linecap="round"/>
  <line x1="6" y1="22" x2="8" y2="22" stroke="#00BFFF" stroke-width="1.5" stroke-linecap="round"/>
  
  <!-- Chip pins - right side -->
  <line x1="24" y1="10" x2="26" y2="10" stroke="#00BFFF" stroke-width="1.5" stroke-linecap="round"/>
  <line x1="24" y1="14" x2="26" y2="14" stroke="#00BFFF" stroke-width="1.5" stroke-linecap="round"/>
  <line x1="24" y1="18" x2="26" y2="18" stroke="#00BFFF" stroke-width="1.5" stroke-linecap="round"/>
  <line x1="24" y1="22" x2="26" y2="22" stroke="#00BFFF" stroke-width="1.5" stroke-linecap="round"/>
  
  <!-- Chip pins - top side -->
  <line x1="12" y1="6" x2="12" y2="8" stroke="#ff0080" stroke-width="1.5" stroke-linecap="round"/>
  <line x1="16" y1="6" x2="16" y2="8" stroke="#ff0080" stroke-width="1.5" stroke-linecap="round"/>
  <line x1="20" y1="6" x2="20" y2="8" stroke="#ff0080" stroke-width="1.5" stroke-linecap="round"/>
  
  <!-- Chip pins - bottom side -->
  <line x1="12" y1="24" x2="12" y2="26" stroke="#ff0080" stroke-width="1.5" stroke-linecap="round"/>
  <line x1="16" y1="24" x2="16" y2="26" stroke="#ff0080" stroke-width="1.5" stroke-linecap="round"/>
  <line x1="20" y1="24" x2="20" y2="26" stroke="#ff0080" stroke-width="1.5" stroke-linecap="round"/>
  
  <!-- Chip label/marking -->
  <circle cx="16" cy="16" r="3" fill="none" stroke="#00ff88" stroke-width="1"/>
  <circle cx="16" cy="16" r="1" fill="#00ff88"/>
  
  <!-- Subtle glow effect -->
  <rect x="8" y="8" width="16" height="16" fill="none" stroke="#00ff88" stroke-width="2" rx="1" opacity="0.3" filter="blur(1px)"/>
</svg>